<svg id="visual" viewBox="0 0 1500 200" width="1500" height="200" xmlns="http://www.w3.org/2000/svg" xmlns:xlink="http://www.w3.org/1999/xlink" version="1.1"><rect x="0" y="0" width="1500" height="200" fill="#1A242C"></rect><path d="M0 108L20.8 97.7C41.7 87.3 83.3 66.7 125 59.5C166.7 52.3 208.3 58.7 250 62.7C291.7 66.7 333.3 68.3 375 66C416.7 63.7 458.3 57.3 500 62.7C541.7 68 583.3 85 625 87.7C666.7 90.3 708.3 78.7 750 79.3C791.7 80 833.3 93 875 97.3C916.7 101.7 958.3 97.3 1000 85.8C1041.7 74.3 1083.3 55.7 1125 49.5C1166.7 43.3 1208.3 49.7 1250 64.2C1291.7 78.7 1333.3 101.3 1375 101.7C1416.7 102 1458.3 80 1479.2 69L1500 58" fill="none" stroke-linecap="round" stroke-linejoin="miter" stroke="#9e752a" stroke-width="40"></path></svg>