<svg id="visual" viewBox="0 0 1980 200" width="1980" height="200" xmlns="http://www.w3.org/2000/svg" xmlns:xlink="http://www.w3.org/1999/xlink" version="1.1"><rect x="0" y="0" width="1980" height="200" fill="#1a242c"></rect><path d="M0 156L41.3 155.5C82.7 155 165.3 154 247.8 152C330.3 150 412.7 147 495.2 140.2C577.7 133.3 660.3 122.7 742.8 126C825.3 129.3 907.7 146.7 990.2 154.5C1072.7 162.3 1155.3 160.7 1237.8 148.5C1320.3 136.3 1402.7 113.7 1485.2 103.7C1567.7 93.7 1650.3 96.3 1732.8 105.8C1815.3 115.3 1897.7 131.7 1938.8 139.8L1980 148" fill="none" stroke-linecap="round" stroke-linejoin="miter" stroke="#9e752a" stroke-width="40"></path></svg>