<svg id="visual" viewBox="0 0 1980 200" width="1980" height="200" xmlns="http://www.w3.org/2000/svg" xmlns:xlink="http://www.w3.org/1999/xlink" version="1.1"><rect x="0" y="0" width="1980" height="200" fill="#1a242c"></rect><path d="M0 70L41.3 73.3C82.7 76.7 165.3 83.3 247.8 96.7C330.3 110 412.7 130 495.2 125C577.7 120 660.3 90 742.8 82.2C825.3 74.3 907.7 88.7 990.2 107.5C1072.7 126.3 1155.3 149.7 1237.8 155.8C1320.3 162 1402.7 151 1485.2 135.3C1567.7 119.7 1650.3 99.3 1732.8 85C1815.3 70.7 1897.7 62.3 1938.8 58.2L1980 54" fill="none" stroke-linecap="round" stroke-linejoin="miter" stroke="#9e752a" stroke-width="40"></path></svg>