<svg id="visual" viewBox="0 0 1980 200" width="1980" height="200" xmlns="http://www.w3.org/2000/svg" xmlns:xlink="http://www.w3.org/1999/xlink" version="1.1"><rect x="0" y="0" width="1980" height="200" fill="#1a242c"></rect><path d="M0 57L41.3 56.7C82.7 56.3 165.3 55.7 247.8 77.5C330.3 99.3 412.7 143.7 495.2 143C577.7 142.3 660.3 96.7 742.8 89.7C825.3 82.7 907.7 114.3 990.2 135.5C1072.7 156.7 1155.3 167.3 1237.8 155.3C1320.3 143.3 1402.7 108.7 1485.2 108.7C1567.7 108.7 1650.3 143.3 1732.8 156C1815.3 168.7 1897.7 159.3 1938.8 154.7L1980 150" fill="none" stroke-linecap="round" stroke-linejoin="miter" stroke="#9e752a" stroke-width="40"></path></svg>