<svg id="visual" viewBox="0 0 1980 200" width="1980" height="200" xmlns="http://www.w3.org/2000/svg" xmlns:xlink="http://www.w3.org/1999/xlink" version="1.1"><rect x="0" y="0" width="1980" height="200" fill="#1a242c"></rect><path d="M0 141L41.3 128.8C82.7 116.7 165.3 92.3 247.8 80.5C330.3 68.7 412.7 69.3 495.2 77C577.7 84.7 660.3 99.3 742.8 112.5C825.3 125.7 907.7 137.3 990.2 129.7C1072.7 122 1155.3 95 1237.8 83.8C1320.3 72.7 1402.7 77.3 1485.2 93.2C1567.7 109 1650.3 136 1732.8 141.7C1815.3 147.3 1897.7 131.7 1938.8 123.8L1980 116" fill="none" stroke-linecap="round" stroke-linejoin="miter" stroke="#9e752a" stroke-width="40"></path></svg>